<?xml version="1.0" encoding="UTF-8" standalone="no"?><!DOCTYPE svg PUBLIC "-//W3C//DTD SVG 1.1//EN" "http://www.w3.org/Graphics/SVG/1.1/DTD/svg11.dtd"><svg width="100%" height="100%" viewBox="0 0 1024 768" version="1.1" xmlns="http://www.w3.org/2000/svg" xmlns:xlink="http://www.w3.org/1999/xlink" xml:space="preserve" xmlns:serif="http://www.serif.com/" style="fill-rule:evenodd;clip-rule:evenodd;stroke-linecap:round;stroke-linejoin:round;stroke-miterlimit:10;"><path d="M200.237,495.409l0,-190.72l39.681,0l0,156.16l80.639,0l0,34.56l-120.32,0Z" style="fill-rule:nonzero;"/><path d="M380.716,498.483c-10.072,0 -18.776,-1.624 -26.113,-4.864c-7.339,-3.242 -12.971,-7.892 -16.896,-13.956c-3.927,-6.053 -5.888,-13.266 -5.888,-21.63c0,-7.847 1.794,-14.806 5.378,-20.864c3.582,-6.056 9.087,-11.137 16.511,-15.232c7.423,-4.097 16.68,-6.997 27.774,-8.702l42.753,-6.913l0,28.157l-35.84,6.404c-5.465,1.02 -9.643,2.775 -12.543,5.244c-2.905,2.479 -4.354,6.017 -4.354,10.627c0,4.267 1.619,7.593 4.864,9.983c3.239,2.39 7.253,3.584 12.033,3.584c6.312,0 11.86,-1.365 16.64,-4.097c4.777,-2.727 8.488,-6.442 11.137,-11.135c2.643,-4.693 3.968,-9.858 3.968,-15.488l0,-36.355c0,-5.287 -2.093,-9.727 -6.271,-13.311c-4.186,-3.582 -9.859,-5.373 -17.026,-5.373c-6.83,0 -12.845,1.879 -18.048,5.629c-5.209,3.757 -9.006,8.707 -11.391,14.849l-30.723,-14.59c2.73,-7.852 7.083,-14.593 13.058,-20.225c5.972,-5.635 13.142,-9.983 21.503,-13.057c8.359,-3.072 17.493,-4.607 27.394,-4.607c11.774,0 22.183,2.136 31.23,6.398c9.044,4.27 16.084,10.201 21.12,17.794c5.033,7.596 7.55,16.427 7.55,26.493l0,92.163l-35.837,0l0,-22.531l8.704,-1.535c-4.1,6.145 -8.62,11.224 -13.568,15.232c-4.954,4.013 -10.498,6.999 -16.639,8.963c-6.145,1.959 -12.974,2.943 -20.481,2.943Z" style="fill-rule:nonzero;"/><path d="M486.699,495.409l0,-139.776l35.84,0l0,27.65l-2.047,-6.145c3.237,-8.362 8.486,-14.549 15.742,-18.56c7.253,-4.009 15.744,-6.018 25.476,-6.018c10.578,0 19.834,2.22 27.773,6.657c7.934,4.44 14.121,10.624 18.561,18.56c4.435,7.935 6.655,17.195 6.655,27.774l0,89.856l-38.4,0l0,-81.665c0,-5.459 -1.067,-10.15 -3.2,-14.08c-2.139,-3.925 -5.12,-6.994 -8.957,-9.214c-3.847,-2.217 -8.323,-3.329 -13.443,-3.329c-4.952,0 -9.389,1.111 -13.311,3.329c-3.93,2.22 -6.959,5.289 -9.09,9.214c-2.134,3.93 -3.199,8.62 -3.199,14.08l0,81.665l-38.399,0Z" style="fill-rule:nonzero;"/><path d="M707.366,453.68c6.486,0 12.118,-1.365 16.901,-4.094c4.772,-2.727 8.483,-6.568 11.133,-11.521c2.645,-4.95 3.967,-10.754 3.967,-17.408c0,-6.657 -1.366,-12.5 -4.097,-17.536c-2.732,-5.031 -6.486,-8.96 -11.264,-11.776c-4.778,-2.813 -10.328,-4.224 -16.64,-4.224c-6.486,0 -12.243,1.41 -17.277,4.224c-5.039,2.816 -8.962,6.746 -11.775,11.776c-2.819,5.036 -4.223,10.879 -4.223,17.536c0,6.49 1.404,12.203 4.223,17.152c2.813,4.952 6.737,8.832 11.775,11.647c5.033,2.819 10.79,4.224 17.277,4.224Zm1.279,98.048c-10.747,0 -20.732,-1.794 -29.95,-5.376c-9.218,-3.585 -17.113,-8.575 -23.681,-14.978c-6.573,-6.398 -11.307,-13.951 -14.208,-22.655l35.587,-12.543c1.872,6.485 5.714,11.604 11.52,15.359c5.801,3.752 12.711,5.632 20.732,5.632c6.318,0 11.781,-1.149 16.384,-3.453c4.609,-2.306 8.151,-5.678 10.627,-10.112c2.47,-4.442 3.711,-9.643 3.711,-15.618l0,-32.001l7.428,9.217c-4.783,7.854 -10.926,13.697 -18.436,17.535c-7.509,3.841 -16.297,5.761 -26.369,5.761c-12.972,0 -24.574,-2.945 -34.815,-8.834c-10.241,-5.886 -18.262,-13.991 -24.062,-24.319c-5.806,-10.323 -8.706,-22.054 -8.706,-35.2c0,-13.139 2.9,-24.789 8.706,-34.941c5.801,-10.153 13.734,-18.134 23.806,-23.939c10.067,-5.8 21.505,-8.704 34.303,-8.704c10.072,0 18.855,2.009 26.369,6.017c7.509,4.011 13.908,10.112 19.203,18.302l-4.87,9.219l0,-30.464l35.843,0l0,132.35c0,12.289 -2.987,23.251 -8.962,32.897c-5.969,9.638 -14.121,17.19 -24.449,22.655c-10.328,5.459 -22.228,8.192 -35.712,8.192Z" style="fill-rule:nonzero;"/><rect x="805.928" y="355.634" width="38.4" height="139.776" style="fill-rule:nonzero;"/><path d="M915.748,498.483c-10.072,0 -18.773,-1.624 -26.114,-4.864c-7.341,-3.242 -12.972,-7.892 -16.896,-13.956c-3.923,-6.053 -5.888,-13.266 -5.888,-21.63c0,-7.847 1.79,-14.806 5.382,-20.864c3.58,-6.056 9.082,-11.137 16.509,-15.232c7.417,-4.097 16.678,-6.997 27.773,-8.702l42.754,-6.913l0,28.157l-35.843,6.404c-5.458,1.02 -9.642,2.775 -12.543,5.244c-2.9,2.479 -4.353,6.017 -4.353,10.627c0,4.267 1.622,7.593 4.87,9.983c3.238,2.39 7.248,3.584 12.026,3.584c6.318,0 11.862,-1.365 16.64,-4.097c4.778,-2.727 8.489,-6.442 11.139,-11.135c2.645,-4.693 3.967,-9.858 3.967,-15.488l0,-36.355c0,-5.287 -2.09,-9.727 -6.274,-13.311c-4.179,-3.582 -9.855,-5.373 -17.021,-5.373c-6.829,0 -12.847,1.879 -18.049,5.629c-5.207,3.757 -9,8.707 -11.394,14.849l-30.717,-14.59c2.732,-7.852 7.085,-14.593 13.054,-20.225c5.975,-5.635 13.141,-9.983 21.505,-13.057c8.364,-3.072 17.494,-4.607 27.392,-4.607c11.775,0 22.185,2.136 31.229,6.398c9.044,4.27 16.09,10.201 21.124,17.794c5.033,7.596 7.553,16.427 7.553,26.493l0,92.163l-35.843,0l0,-22.531l8.706,-1.535c-4.097,6.145 -8.619,11.224 -13.566,15.232c-4.952,4.013 -10.497,6.999 -16.64,8.963c-6.143,1.959 -12.978,2.943 -20.482,2.943Z" style="fill-rule:nonzero;"/><path d="M843.888,321.193c0,10.508 -8.516,19.027 -19.023,19.027c-10.507,0 -19.029,-8.519 -19.029,-19.027c0,-10.509 8.521,-19.027 19.029,-19.027c10.507,0 19.023,8.519 19.023,19.027Z" style="fill-rule:nonzero;"/><path d="M438.864,538.901c0.51,3.566 0.873,9.027 0,15.504c-0.655,5.022 -2.622,19.072 -12.448,27.226c-7.06,5.822 -15.504,6.624 -19.509,6.624l-172.298,0c-13.466,0 -86.987,-1.457 -145.658,-61.073c-56.995,-58.015 -58.523,-129.134 -58.523,-143.181c0.071,-13.25 1.528,-88.807 63.109,-147.622c57.287,-54.813 126.367,-56.561 141.145,-56.632c18.633,0.145 72.209,2.985 123.018,41.2c39.235,29.553 57.579,65.804 65.076,83.275" style="fill:none;fill-rule:nonzero;stroke:#000;stroke-width:30.96px;"/></svg>